# xmcd
#
# Track frame offsets:
#	150
#	19106
#	35030
#	51319
#	66491
#	82503
#	96049
#	108355
#	115104
#	125548
#	138634
#	155100
#
# Disc length: 2230 seconds
#
# Revision: 1
# Processed by: cddbd v1.5.1PL0 Copyright (c) Steve Scherf et al.
# Submitted via: audiograbber 1.80
#
DISCID=a308b40c
DTITLE=Various Artist - St. Valentines' Collection
DYEAR=1900
DGENRE=
TTITLE0=Ray Charles - I can't stop loving you
TTITLE1=Aretha Franklin - I say a little prayer for you
TTITLE2=Nina Simone - My baby just cares for me
TTITLE3=Shirley Bassey - Yesterday
TTITLE4=Louis Armstrong - C'est si bon
TTITLE5=Marilyn Monroe - I wanna be loved by you
TTITLE6=Nat King Cole - Unforgettable
TTITLE7=Frank Sinatra - Somebody loves me
TTITLE8=Louis Armstrong - What a wonderful world
TTITLE9=Billie Holliday - Summertime
TTITLE10=Ray Charles - Georgia on my mind
TTITLE11=Nat King Cole - Mona Lisa
EXTD=Telestet "Esy and Egw" 2001-
EXTT0=
EXTT1=
EXTT2=
EXTT3=
EXTT4=
EXTT5=
EXTT6=
EXTT7=
EXTT8=
EXTT9=
EXTT10=
EXTT11=
PLAYORDER=
